# xmcd CD database file
#
# Track frame offsets:
#	150
#	17596
#	32428
#	46883
#	57777
#	77009
#	86336
#	103813
#	124287
#	128705
#	145721
#	161548
#	173400
#	194302
#	209421
#	216402
#	228879
#
# Disc length: 3266 seconds
#
# Revision: 0
# Processed by: cddbd v1.5.1PL2 Copyright (c) Steve Scherf et al.
# Submitted via: CDex 1.51
#
DISCID=d90cc011
DTITLE=Klaus Brandl - Night Songs
DYEAR=2006
DGENRE=Blues
TTITLE0=Red Wine Before Sunset
TTITLE1=Endless Blue
TTITLE2=Black Dog Smile
TTITLE3=Brandl's Breakdown
TTITLE4=Dark Stars
TTITLE5=From The Castle
TTITLE6=Grandpa's Shoes
TTITLE7=Nickel and Dime
TTITLE8=Spider Rag
TTITLE9=Three Sheets To The Wind
TTITLE10=Drunk Up To The Stars
TTITLE11=Old Friends
TTITLE12=Aristocrats
TTITLE13=Rainbow's End
TTITLE14=Grinzin'
TTITLE15=Rain Pours own
TTITLE16=Helsinki
EXTD=YEAR: 2006
EXTT0=
EXTT1=
EXTT2=
EXTT3=
EXTT4=
EXTT5=
EXTT6=
EXTT7=
EXTT8=
EXTT9=
EXTT10=
EXTT11=
EXTT12=
EXTT13=
EXTT14=
EXTT15=
EXTT16=
PLAYORDER=
